# xmcd CD database file
#
# Track frame offsets:
#	150
#	20127
#	38650
#	52254
#	71869
#	84393
#	102637
#	117135
#	133043
#
# Disc length: 2438 seconds
#
# Revision: 0
# Processed by: cddbd v1.5.1PL2 Copyright (c) Steve Scherf et al.
# Submitted via: CDex 1.51
#
DISCID=82098409
DTITLE=Jon Anderson - Song of Seven
DYEAR=1900
DGENRE=New Age
TTITLE0=For you for me
TTITLE1=Some are born
TTITLE2=Don´t forget (Nostalgia)
TTITLE3=Heart of the matter
TTITLE4=Hear it
TTITLE5=Everybody loves you
TTITLE6=Take your time
TTITLE7=Days
TTITLE8=Song of seven
EXTD=
EXTT0=
EXTT1=
EXTT2=
EXTT3=
EXTT4=
EXTT5=
EXTT6=
EXTT7=
EXTT8=
PLAYORDER=
